<ttFont>
<head>
    <!-- Most of this table will be recalculated by the compiler -->
    <tableVersion value="1.0"/>
    <fontRevision value="1.0"/>
    <checkSumAdjustment value="0x63a7ff93"/>
    <magicNumber value="0x5f0f3cf5"/>
    <flags value="00000000 00000011"/>
    <unitsPerEm value="1000"/>
    <created value="Wed Sep 12 20:00:00 2012"/>
    <modified value="Sun Sep 23 14:33:49 2012"/>
    <xMin value="-293"/>
    <yMin value="-338"/>
    <xMax value="637"/>
    <yMax value="660"/>
    <macStyle value="00000000 00000000"/>
    <lowestRecPPEM value="3"/>
    <fontDirectionHint value="2"/>
    <indexToLocFormat value="0"/>
    <glyphDataFormat value="0"/>
  </head>
        <CharString name=".notdef">
          endchar
        </CharString>
        <CharString name=" ">
          endchar
        </CharString>
        <CharString name="!">
                383 49 rmoveto
                <!-- 383 49 383 49 383 49 rrcurveto -->
                0 0 rlineto
                <!-- 383 49 365 611 365 611 rrcurveto -->
                -18 562 rlineto
                <!-- 365 611 525 599 525 599 rrcurveto -->
                160 -12 rlineto
                <!-- 525 599 519 47 519 47 rrcurveto -->
                -6 -552 rlineto
                <!-- 519 47 383 49 383 49 rrcurveto -->
                -136 2 rlineto
                495 761 rmoveto
                <!-- 359 763 359 763 359 763 rrcurveto -->
                0 0 rlineto
                <!-- 359 763 343 939 343 939 rrcurveto -->
                -16 176 rlineto
                <!-- 343 939 525 933 525 933 rrcurveto -->
                182 -6 rlineto
                <!-- 525 933 519 773 519 773 rrcurveto -->
                -6 -160 rlineto
                <!-- 519 773 359 763 359 763 rrcurveto -->
                -160 -10 rlineto
          endchar
        </CharString>
        <CharString name="&quot;">
          endchar
        </CharString>
        <CharString name="#">
          endchar
        </CharString>
        <CharString name="$">
          endchar
        </CharString>
        <CharString name="%">
          endchar
        </CharString>
        <CharString name="&amp;">
          endchar
        </CharString>
        <CharString name="&#39;">
          endchar
        </CharString>
        <CharString name="(">
          endchar
        </CharString>
        <CharString name=")">
          endchar
        </CharString>
        <CharString name="*">
          endchar
        </CharString>
        <CharString name="+">
          endchar
        </CharString>
        <CharString name=",">
          endchar
        </CharString>
        <CharString name="-">
          endchar
        </CharString>
        <CharString name=".">
          endchar
        </CharString>
        <CharString name="/">
          endchar
        </CharString>
        <CharString name="0">
          endchar
        </CharString>
        <CharString name="1">
          endchar
        </CharString>
        <CharString name="2">
          endchar
        </CharString>
        <CharString name="3">
          endchar
        </CharString>
        <CharString name="4">
          endchar
        </CharString>
        <CharString name="5">
          endchar
        </CharString>
        <CharString name="6">
          endchar
        </CharString>
        <CharString name="7">
          endchar
        </CharString>
        <CharString name="8">
          endchar
        </CharString>
        <CharString name="9">
          endchar
        </CharString>
        <CharString name=":">
          endchar
        </CharString>
        <CharString name=";">
          endchar
        </CharString>
        <CharString name="&lt;">
          endchar
        </CharString>
        <CharString name="=">
          endchar
        </CharString>
        <CharString name="&gt;">
          endchar
        </CharString>
        <CharString name="?">
          endchar
        </CharString>
        <CharString name="@">
          endchar
        </CharString>
        <CharString name="A">
                77 989 rmoveto
                <!-- 77 989 77 989 77 989 rrcurveto -->
                0 0 rlineto
                <!-- 77 989 347 1 347 1 rrcurveto -->
                270 -988 rlineto
                <!-- 347 1 575 7 575 7 rrcurveto -->
                228 6 rlineto
                <!-- 575 7 961 991 961 991 rrcurveto -->
                386 984 rlineto
                <!-- 961 991 797 985 797 985 rrcurveto -->
                -164 -6 rlineto
                <!-- 797 985 579 679 579 679 rrcurveto -->
                -218 -306 rlineto
                <!-- 579 679 309 685 309 685 rrcurveto -->
                -270 6 rlineto
                <!-- 309 685 185 985 185 985 rrcurveto -->
                -124 300 rlineto
                <!-- 185 985 77 989 77 989 rrcurveto -->
                -108 4 rlineto
          endchar
        </CharString>
        <CharString name="B">
                213 691 rmoveto
                <!-- 213 691 213 691 213 691 rrcurveto -->
                0 0 rlineto
                <!-- 213 691 193 3 193 3 rrcurveto -->
                -20 -688 rlineto
                <!-- 193 3 499 9 499 9 rrcurveto -->
                306 6 rlineto
                <!-- 499 9 549 347 549 347 rrcurveto -->
                50 338 rlineto
                <!-- 549 347 409 395 409 395 rrcurveto -->
                -140 48 rlineto
                <!-- 409 395 543 407 543 407 rrcurveto -->
                134 12 rlineto
                <!-- 543 407 583 685 583 685 rrcurveto -->
                40 278 rlineto
                <!-- 583 685 213 691 213 691 rrcurveto -->
                -370 6 rlineto
          endchar
        </CharString>
        <CharString name="C">
          endchar
        </CharString>
        <CharString name="D">
                255 695 rmoveto
                <!-- 255 695 255 695 255 695 rrcurveto -->
                0 0 rlineto
                <!-- 255 695 69 61 69 61 rrcurveto -->
                -186 -634 rlineto
                <!-- 69 61 557 71 601 129 rrcurveto -->
                532 68 rlineto
                <!-- 653 247 575 513 575 513 rrcurveto -->
                -26 384 rlineto
                <!-- 575 513 255 695 255 695 rrcurveto -->
                -320 182 rlineto
          endchar
        </CharString>
        <CharString name="E">
          endchar
        </CharString>
        <CharString name="F">
          endchar
        </CharString>
        <CharString name="G">
          endchar
        </CharString>
        <CharString name="H">
          endchar
        </CharString>
        <CharString name="I">
          endchar
        </CharString>
        <CharString name="J">
          endchar
        </CharString>
        <CharString name="K">
          endchar
        </CharString>
        <CharString name="L">
          endchar
        </CharString>
        <CharString name="M">
          endchar
        </CharString>
        <CharString name="N">
          endchar
        </CharString>
        <CharString name="O">
          endchar
        </CharString>
        <CharString name="P">
          endchar
        </CharString>
        <CharString name="Q">
          endchar
        </CharString>
        <CharString name="R">
          endchar
        </CharString>
        <CharString name="S">
          endchar
        </CharString>
        <CharString name="T">
          endchar
        </CharString>
        <CharString name="U">
          endchar
        </CharString>
        <CharString name="V">
          endchar
        </CharString>
        <CharString name="W">
          endchar
        </CharString>
        <CharString name="X">
          endchar
        </CharString>
        <CharString name="Y">
          endchar
        </CharString>
        <CharString name="Z">
          endchar
        </CharString>
        <CharString name="[">
          endchar
        </CharString>
        <CharString name="\">
          endchar
        </CharString>
        <CharString name="]">
          endchar
        </CharString>
        <CharString name="^">
          endchar
        </CharString>
        <CharString name="_">
          endchar
        </CharString>
        <CharString name="`">
          endchar
        </CharString>
        <CharString name="a">
          endchar
        </CharString>
        <CharString name="b">
          endchar
        </CharString>
        <CharString name="c">
          endchar
        </CharString>
        <CharString name="d">
          endchar
        </CharString>
        <CharString name="e">
          endchar
        </CharString>
        <CharString name="f">
          endchar
        </CharString>
        <CharString name="g">
          endchar
        </CharString>
        <CharString name="h">
          endchar
        </CharString>
        <CharString name="i">
          endchar
        </CharString>
        <CharString name="j">
          endchar
        </CharString>
        <CharString name="k">
          endchar
        </CharString>
        <CharString name="l">
          endchar
        </CharString>
        <CharString name="m">
          endchar
        </CharString>
        <CharString name="n">
          endchar
        </CharString>
        <CharString name="o">
          endchar
        </CharString>
        <CharString name="p">
          endchar
        </CharString>
        <CharString name="q">
          endchar
        </CharString>
        <CharString name="r">
          endchar
        </CharString>
        <CharString name="s">
          endchar
        </CharString>
        <CharString name="t">
          endchar
        </CharString>
        <CharString name="u">
          endchar
        </CharString>
        <CharString name="v">
          endchar
        </CharString>
        <CharString name="w">
          endchar
        </CharString>
        <CharString name="x">
          endchar
        </CharString>
        <CharString name="y">
          endchar
        </CharString>
        <CharString name="z">
          endchar
        </CharString>
        <CharString name="{">
          endchar
        </CharString>
        <CharString name="|">
          endchar
        </CharString>
        <CharString name="}">
          endchar
        </CharString>
        <CharString name="~">
          endchar
        </CharString>
        <CharString name="">
          endchar
        </CharString>
</ttFont>
